<svg width="58" height="59" viewBox="0 0 58 59" fill="none" xmlns="http://www.w3.org/2000/svg">
<g clip-path="url(#clip0_101_387)">
<circle cx="29" cy="29.5" r="29" fill="#F3F5F6"/>
<path d="M47 58.75V54.25C47 51.8631 46.0518 49.5739 44.364 47.886C42.6761 46.1982 40.3869 45.25 38 45.25H20C17.6131 45.25 15.3239 46.1982 13.636 47.886C11.9482 49.5739 11 51.8631 11 54.25V58.75" fill="black"/>
<path d="M29 36.25C33.9706 36.25 38 32.2206 38 27.25C38 22.2794 33.9706 18.25 29 18.25C24.0294 18.25 20 22.2794 20 27.25C20 32.2206 24.0294 36.25 29 36.25Z" fill="black"/>
</g>
<defs>
<clipPath id="clip0_101_387">
<rect y="0.5" width="58" height="58" rx="29" fill="white"/>
</clipPath>
</defs>
</svg>
