<svg width="252" height="215" viewBox="0 0 252 215" fill="none" xmlns="http://www.w3.org/2000/svg">
<rect y="57" width="252" height="158" rx="20" fill="#F3F5F6"/>
<g clip-path="url(#clip0_16_882)">
<path d="M128.017 100.467C151.811 100.467 171.1 81.1777 171.1 57.3834C171.1 33.5891 151.811 14.3 128.017 14.3C104.222 14.3 84.9333 33.5891 84.9333 57.3834C84.9333 81.1777 104.222 100.467 128.017 100.467Z" fill="#E5E0FF"/>
<path d="M102.044 74.0667L120.148 24.3552L158.324 64.7211L113.984 85.0755C106.881 88.3361 99.3696 81.4103 102.044 74.0667Z" fill="#5B40FF"/>
<path d="M144.175 40.0543C149.446 45.6704 153.695 51.2382 156.304 55.6972C157.609 57.928 158.499 59.8725 158.904 61.4015C159.107 62.1661 159.186 62.8174 159.14 63.3438C159.095 63.8687 158.928 64.2571 158.65 64.5183C158.371 64.7795 157.973 64.9218 157.446 64.9338C156.918 64.9457 156.273 64.8258 155.523 64.5751C154.023 64.0739 152.138 63.0629 149.995 61.619C145.71 58.7328 140.422 54.1401 135.151 48.524C129.88 42.9079 125.631 37.3401 123.022 32.8811C121.717 30.6502 120.827 28.7058 120.422 27.1768C120.22 26.4121 120.141 25.7609 120.186 25.2345C120.231 24.7096 120.399 24.3212 120.677 24.06C120.955 23.7987 121.353 23.6564 121.88 23.6445C122.408 23.6326 123.053 23.7525 123.804 24.0032C125.304 24.5043 127.188 25.5153 129.332 26.9593C133.617 29.8454 138.904 34.4382 144.175 40.0543Z" fill="black" stroke="black" stroke-width="0.366667"/>
<mask id="mask0_16_882" style="mask-type:alpha" maskUnits="userSpaceOnUse" x="101" y="24" width="58" height="62">
<path d="M102.044 74.0667L120.148 24.3552L158.324 64.7211L113.984 85.0755C106.881 88.3361 99.3696 81.4103 102.044 74.0667Z" fill="#5B40FF"/>
</mask>
<g mask="url(#mask0_16_882)">
<path fill-rule="evenodd" clip-rule="evenodd" d="M119.299 57.4105C111.65 47.3938 107.78 35.4519 106.532 27.4345L112.691 26.4756C113.814 33.6923 117.361 44.6017 124.253 53.6276C131.08 62.5685 141.069 69.5408 155.314 69.5408V75.7741C138.689 75.7741 127.012 67.5122 119.299 57.4105Z" fill="black"/>
<path fill-rule="evenodd" clip-rule="evenodd" d="M120.12 55.4948C112.471 45.478 108.601 33.5361 107.353 25.5187L113.512 24.5598C114.635 31.7765 118.182 42.6859 125.074 51.7118C131.901 60.6528 141.89 67.625 156.135 67.625V73.8584C139.51 73.8584 127.833 65.5965 120.12 55.4948Z" fill="white"/>
<path fill-rule="evenodd" clip-rule="evenodd" d="M110.268 69.9992C102.619 59.9824 98.749 48.0405 97.5007 40.0231L103.66 39.0642C104.783 46.2809 108.33 57.1903 115.222 66.2162C122.049 75.1572 132.038 82.1294 146.283 82.1294V88.3628C129.658 88.3628 117.981 80.1009 110.268 69.9992Z" fill="white"/>
</g>
<circle cx="137" cy="78.1001" r="11" fill="black"/>
<path fill-rule="evenodd" clip-rule="evenodd" d="M141.451 74.7622C141.877 75.1955 141.871 75.8919 141.438 76.3178L136.216 81.4511C135.788 81.8719 135.101 81.8719 134.673 81.4511L132.562 79.376C132.129 78.9501 132.123 78.2536 132.549 77.8204C132.975 77.3871 133.671 77.3812 134.104 77.807L135.444 79.1242L139.896 74.7489C140.329 74.323 141.025 74.329 141.451 74.7622Z" fill="white"/>
<path d="M158.51 25.582L158.51 25.5819C159.161 23.9289 159.421 22.2802 159.692 20.5522C159.739 20.2578 159.786 19.961 159.835 19.6616L158.51 25.582ZM158.51 25.582C158.399 25.8642 158.08 26.0037 157.798 25.8923L157.797 25.8919C157.514 25.7823 157.375 25.4633 157.486 25.1815L157.486 25.1814C158.107 23.6032 158.352 22.0228 158.601 20.4181C158.649 20.108 158.697 19.797 158.748 19.485L158.567 19.4553M158.51 25.582L157.73 26.0628C157.353 25.9163 157.167 25.4905 157.315 25.1143C157.928 23.5567 158.17 21.9994 158.419 20.3948C158.467 20.0835 158.516 19.7705 158.567 19.4553M158.567 19.4553L158.748 19.4849M158.567 19.4553C158.633 19.0558 159.01 18.7841 159.41 18.85L158.748 19.4849M158.748 19.4849C158.798 19.1851 159.081 18.9816 159.38 19.0309C159.68 19.0804 159.884 19.3624 159.835 19.6616L158.748 19.4849Z" fill="black" stroke="black" stroke-width="0.366667"/>
<path d="M162.294 29.991L162.294 29.9912C162.045 30.1641 161.701 30.1019 161.528 29.8533C161.355 29.6057 161.416 29.2639 161.665 29.0906C165.357 26.5349 168.974 23.0932 171.664 19.4878L171.664 19.4877C171.845 19.245 172.19 19.1946 172.435 19.3754C172.678 19.5552 172.728 19.899 172.548 20.1421C169.791 23.8373 166.081 27.368 162.294 29.991Z" fill="black" stroke="black" stroke-width="0.366667"/>
<path d="M172.455 32.4079L172.455 32.4075C172.372 32.1166 172.067 31.9477 171.774 32.0304C169.046 32.8109 165.99 33.2642 163.18 32.4066L163.18 32.4065C162.889 32.3177 162.581 32.4817 162.493 32.7697L162.493 32.7698C162.404 33.0576 162.568 33.3657 162.858 33.4545L172.455 32.4079ZM172.455 32.4079C172.539 32.6958 172.371 33 172.078 33.0849M172.455 32.4079L172.078 33.0849M172.078 33.0849C169.109 33.9331 165.839 34.3646 162.858 33.4545L172.078 33.0849Z" fill="black" stroke="black" stroke-width="0.366667"/>
<circle cx="163.033" cy="38.8667" r="2.2" fill="#5B40FF"/>
<circle cx="144.7" cy="16.1334" r="2.2" fill="#5B40FF"/>
<path d="M148.932 25.8357C148.742 25.0496 147.624 25.0496 147.434 25.8357L147.189 26.854C147.121 27.1349 146.901 27.3543 146.62 27.4221L145.602 27.6679C144.816 27.8577 144.816 28.9759 145.602 29.1656L146.62 29.4114C146.901 29.4793 147.121 29.6986 147.189 29.9795L147.434 30.9978C147.624 31.784 148.742 31.784 148.932 30.9978L149.178 29.9795C149.246 29.6986 149.465 29.4793 149.746 29.4114L150.764 29.1656C151.55 28.9759 151.55 27.8577 150.764 27.6679L149.746 27.4221C149.465 27.3543 149.246 27.1349 149.178 26.854L148.932 25.8357Z" fill="#D2D2D2"/>
<path fill-rule="evenodd" clip-rule="evenodd" d="M139.554 8.91375C139.776 9.47912 139.498 10.1177 138.933 10.34C137.319 10.9746 135.251 13.0186 133.87 15.5629C132.819 17.4995 132.308 19.4553 132.523 21.056C133.168 20.1342 133.942 19.3781 134.838 18.8924C136.446 18.0218 138.279 18.1142 140.055 19.3241C141.606 20.3813 142.239 21.8855 142.071 23.3844C141.911 24.8175 141.037 26.113 139.851 26.9269C138.647 27.7529 137.049 28.1338 135.4 27.629C134.466 27.3428 133.569 26.7893 132.749 25.949C131.967 28.9954 131.995 32.8113 133.288 36.1862C133.506 36.7535 133.222 37.3896 132.655 37.607C132.087 37.8244 131.451 37.5407 131.234 36.9735C129.528 32.5226 129.75 27.4393 131.141 23.737C131.101 23.6656 131.062 23.5933 131.023 23.5199C129.56 20.7573 130.436 17.2781 131.936 14.5135C133.448 11.7275 135.846 9.18976 138.128 8.2926C138.693 8.07028 139.332 8.34837 139.554 8.91375ZM133.611 23.5479C134.442 24.7281 135.304 25.2985 136.045 25.5254C136.978 25.8111 137.887 25.6062 138.606 25.1129C139.343 24.6075 139.806 23.8502 139.885 23.14C139.957 22.4956 139.732 21.7661 138.816 21.1421C137.655 20.3512 136.702 20.3848 135.886 20.8269C135.072 21.2677 134.266 22.1901 133.611 23.5479Z" fill="#5B40FF"/>
<path fill-rule="evenodd" clip-rule="evenodd" d="M175.063 51.9353C163.533 47.6497 154.709 52.9786 151.856 55.9927C151.16 56.728 149.999 56.7598 149.264 56.0637C148.529 55.3676 148.497 54.2072 149.193 53.4719C152.817 49.6443 163.131 43.5887 176.341 48.4983C177.29 48.8511 177.773 49.9064 177.42 50.8555C177.068 51.8046 176.012 52.288 175.063 51.9353Z" fill="#5B40FF"/>
<path fill-rule="evenodd" clip-rule="evenodd" d="M163.333 55.7879C163.591 55.6937 163.861 55.5685 164.07 55.3872C164.318 55.1719 164.419 54.8946 164.487 54.6027C164.574 54.2277 164.609 53.8282 164.714 53.4525C164.753 53.313 164.828 53.2603 164.86 53.2369C164.942 53.1778 165.024 53.162 165.102 53.1679C165.194 53.1747 165.32 53.2105 165.403 53.3686C165.414 53.3913 165.43 53.4258 165.44 53.473C165.448 53.5077 165.453 53.616 165.461 53.6607C165.481 53.7707 165.497 53.8807 165.513 53.9914C165.565 54.3596 165.595 54.6723 165.76 55.0105C165.984 55.4697 166.208 55.7507 166.512 55.8752C166.806 55.9955 167.157 55.9729 167.607 55.8785C167.649 55.8679 167.692 55.8588 167.733 55.8513C167.931 55.8157 168.121 55.9493 168.16 56.152C168.198 56.3546 168.073 56.552 167.876 56.5965C167.835 56.6058 167.795 56.6146 167.755 56.6226C167.148 56.777 166.446 57.328 166.037 57.8105C165.912 57.9592 165.727 58.3751 165.539 58.6405C165.401 58.8362 165.245 58.9652 165.114 59.0108C165.026 59.0415 164.952 59.0368 164.891 59.0213C164.803 58.9988 164.729 58.9494 164.672 58.8708C164.642 58.8278 164.613 58.7702 164.6 58.6967C164.593 58.6613 164.592 58.5713 164.592 58.5306C164.554 58.3952 164.507 58.263 164.473 58.1264C164.392 57.8004 164.232 57.5941 164.042 57.3215C163.864 57.0663 163.674 56.906 163.394 56.7781C163.358 56.769 163.064 56.6951 162.96 56.6527C162.809 56.5906 162.737 56.4865 162.711 56.4304C162.666 56.3353 162.661 56.2522 162.67 56.1829C162.684 56.0806 162.728 55.9931 162.807 55.9224C162.857 55.8785 162.93 55.8358 163.028 55.815C163.104 55.7987 163.305 55.7893 163.333 55.7879ZM165.055 55.2567C165.069 55.2878 165.084 55.3192 165.099 55.3508C165.427 56.0233 165.793 56.3988 166.238 56.581L166.253 56.5869C165.955 56.8143 165.686 57.0683 165.48 57.3119C165.395 57.4122 165.282 57.6205 165.161 57.8342C165.051 57.4657 164.87 57.2052 164.643 56.8793C164.47 56.6305 164.288 56.4433 164.065 56.2908C164.238 56.1994 164.404 56.0925 164.547 55.9676C164.787 55.7595 164.945 55.5185 165.055 55.2567Z" fill="#D2D2D2"/>
<mask id="path-20-outside-1_16_882" maskUnits="userSpaceOnUse" x="94.0701" y="54.7592" width="7.03551" height="7.86401" fill="black">
<rect fill="white" x="94.0701" y="54.7592" width="7.03551" height="7.86401"/>
<path fill-rule="evenodd" clip-rule="evenodd" d="M96.8597 61.5634C97.101 59.6084 97.9328 57.9755 99.3983 56.6573C99.571 56.5017 99.5859 56.2339 99.43 56.0599C99.2758 55.8856 99.0092 55.8705 98.8364 56.0261C97.2147 57.4855 96.2916 59.2929 96.0244 61.4576C95.9952 61.6893 96.1605 61.901 96.3902 61.9303C96.6217 61.9594 96.8322 61.7949 96.8597 61.5634Z"/>
</mask>
<path fill-rule="evenodd" clip-rule="evenodd" d="M96.8597 61.5634C97.101 59.6084 97.9328 57.9755 99.3983 56.6573C99.571 56.5017 99.5859 56.2339 99.43 56.0599C99.2758 55.8856 99.0092 55.8705 98.8364 56.0261C97.2147 57.4855 96.2916 59.2929 96.0244 61.4576C95.9952 61.6893 96.1605 61.901 96.3902 61.9303C96.6217 61.9594 96.8322 61.7949 96.8597 61.5634Z" fill="black"/>
<path d="M96.8597 61.5634L96.4958 61.5185L96.4956 61.5201L96.8597 61.5634ZM99.3983 56.6573L99.6435 56.9299L99.6436 56.9298L99.3983 56.6573ZM99.43 56.0599L99.1554 56.3028L99.1569 56.3045L99.43 56.0599ZM98.8364 56.0261L99.0817 56.2986L99.0818 56.2985L98.8364 56.0261ZM96.0244 61.4576L96.3882 61.5034L96.3883 61.5025L96.0244 61.4576ZM96.3902 61.9303L96.3439 62.294L96.3444 62.2941L96.3902 61.9303ZM97.2236 61.6083C97.4544 59.7386 98.2455 58.1874 99.6435 56.9299L99.153 56.3847C97.6201 57.7636 96.7476 59.4781 96.4958 61.5185L97.2236 61.6083ZM99.6436 56.9298C99.9665 56.639 99.9939 56.1399 99.7032 55.8153L99.1569 56.3045C99.1778 56.3279 99.1755 56.3644 99.1529 56.3848L99.6436 56.9298ZM99.7047 55.8169C99.4155 55.49 98.9153 55.4617 98.5911 55.7536L99.0818 56.2985C99.1031 56.2794 99.1362 56.2811 99.1554 56.3028L99.7047 55.8169ZM98.5912 55.7535C96.9022 57.2735 95.9383 59.1624 95.6605 61.4126L96.3883 61.5025C96.645 59.4234 97.5272 57.6976 99.0817 56.2986L98.5912 55.7535ZM95.6606 61.4117C95.606 61.8446 95.9139 62.2393 96.3439 62.294L96.4365 61.5666C96.4071 61.5628 96.3843 61.534 96.3882 61.5034L95.6606 61.4117ZM96.3444 62.2941C96.7776 62.3486 97.1722 62.0404 97.2238 61.6068L96.4956 61.5201C96.4921 61.5494 96.4657 61.5702 96.436 61.5665L96.3444 62.2941Z" fill="black" mask="url(#path-20-outside-1_16_882)"/>
<path d="M96.7627 74.5375C96.7524 74.5976 96.7421 74.6577 96.7317 74.7177C96.6607 75.1292 96.5899 75.5396 96.5406 75.9548C96.5347 76.0067 96.5511 76.0737 96.5682 76.143C96.5755 76.1728 96.583 76.2031 96.5888 76.2328L96.7627 74.5375ZM96.7627 74.5375C97.0309 72.9512 97.4639 71.4355 97.9703 69.9097L96.7627 74.5375ZM69.0428 59.6484C68.764 59.8346 68.6913 60.2109 68.8747 60.4886L68.8747 60.4886L68.8754 60.4896C69.0611 60.7669 69.4353 60.8442 69.7144 60.6579L69.7146 60.6578C72.3189 58.9145 75.6817 59.5217 77.5624 62.0419C77.3225 62.4533 77.1159 62.886 76.9503 63.3363C76.8694 63.5557 76.7321 64.0307 76.7622 64.4307C76.7936 64.8674 77.006 65.2454 77.4516 65.3896L77.4517 65.3897C77.9731 65.558 78.3803 65.4754 78.6807 65.2592C78.9672 65.0534 79.1474 64.719 79.2267 64.3263L79.2267 64.3262C79.3022 63.9514 79.2852 63.5073 79.2244 63.0939C79.1697 62.7222 79.0778 62.3633 78.976 62.0845C79.2422 61.7114 79.5411 61.362 79.8679 61.0396C82.4468 58.495 86.882 58.5437 90.7487 61.1732C91.3953 61.613 91.9578 62.3796 92.4492 63.3626C92.939 64.3427 93.3497 65.5205 93.7014 66.7626L93.7014 66.7626C94.6543 70.1266 95.1153 73.928 95.333 75.7234C95.3657 75.9927 95.3929 76.2168 95.4154 76.3876L95.4155 76.388C95.4379 76.555 95.4651 76.6887 95.4904 76.7873C95.5031 76.8365 95.5155 76.878 95.5272 76.9113C95.5367 76.9387 95.5503 76.9742 95.5682 77.0027C95.7209 77.2478 95.938 77.2878 96.0714 77.2916L96.0733 77.2917C96.2609 77.2951 96.4071 77.2355 96.5191 77.1521L96.5199 77.1515C96.6724 77.0365 96.7794 76.8608 96.803 76.6291L96.8031 76.6277C96.815 76.5011 96.796 76.3453 96.769 76.1994L96.7687 76.1976C96.763 76.1685 96.7562 76.1399 96.75 76.1147C96.7435 76.0881 96.738 76.0663 96.7332 76.0447C96.7285 76.0235 96.7255 76.0071 96.7239 75.994C96.7234 75.9898 96.7231 75.9864 96.7229 75.9837C96.7226 75.9782 96.7228 75.9757 96.7228 75.9757L69.1447 59.8008M69.0428 59.6484C69.0429 59.6484 69.0429 59.6483 69.0429 59.6483L69.1447 59.8008M69.0428 59.6484C69.0428 59.6484 69.0428 59.6484 69.0427 59.6485L69.1447 59.8008M69.0428 59.6484C72.078 57.6166 75.9729 58.2256 78.2792 60.9976M69.1447 59.8008C72.1116 57.8147 75.9196 58.4182 78.1637 61.1457C78.2017 61.0959 78.2402 61.0466 78.2792 60.9976M78.2792 60.9976C78.5096 60.7084 78.7579 60.4334 79.0204 60.1741L79.0204 60.1741C82.0179 57.2152 87.094 57.2239 91.4253 60.1693L91.4253 60.1693C92.1229 60.644 92.7291 61.4036 93.2527 62.331C93.7773 63.2601 94.2254 64.3692 94.6017 65.5565C95.3291 67.8512 95.8111 70.4513 96.1284 72.5523M78.2792 60.9976C78.3191 61.0456 78.3585 61.0942 78.3975 61.1435C78.6303 60.8486 78.8821 60.5683 79.1492 60.3045L96.1284 72.5523M96.1284 72.5523C96.0891 72.7131 96.0511 72.8742 96.0146 73.0359C95.7001 70.8672 95.2037 68.0622 94.4269 65.6119C93.6792 63.2525 92.6526 61.2261 91.3222 60.3209L96.1284 72.5523ZM96.1284 72.5523C96.1536 72.7193 96.1778 72.8831 96.201 73.0433L104.279 55.3546L104.396 55.2134C104.396 55.2132 104.396 55.213 104.395 55.2128C104.137 54.9998 103.757 55.0393 103.545 55.2977L103.545 55.2982C100.444 59.1129 98.8849 63.8508 97.3764 68.4354C97.2501 68.8192 97.1242 69.2018 96.9978 69.5828L96.9978 69.5828C96.671 70.5678 96.3733 71.5512 96.1284 72.5523ZM76.945 64.4175C76.9727 64.8013 77.152 65.1 77.5081 65.2152C77.981 65.3679 78.3262 65.2885 78.5737 65.1103L76.945 64.4175ZM78.0422 64.0838L78.0422 64.084C78.0294 64.1472 78.0184 64.1926 78.0043 64.2272C77.9937 64.2534 77.9848 64.2648 77.9795 64.2698C77.9772 64.27 77.9739 64.2701 77.969 64.2699C77.9683 64.2699 77.9675 64.2698 77.9667 64.2698C77.9667 64.2686 77.9668 64.2675 77.9668 64.2665C77.9763 64.0936 78.0327 63.9024 78.0743 63.784C78.0712 63.8908 78.0609 63.9921 78.0422 64.0838Z" fill="black" stroke="black" stroke-width="0.366667"/>
</g>
<path d="M98.8026 129.2L103.195 135.344L107.587 129.2H110.395L104.707 137.264L110.851 146H108.019L103.195 139.304L98.3946 146H95.6346L101.755 137.36L96.0426 129.2H98.8026ZM118.211 146.144C116.947 146.144 115.811 145.864 114.803 145.304C113.795 144.744 113.003 143.976 112.427 143C111.867 142.008 111.587 140.888 111.587 139.64C111.587 138.392 111.867 137.28 112.427 136.304C113.003 135.312 113.795 134.544 114.803 134C115.811 133.44 116.947 133.16 118.211 133.16C119.475 133.16 120.603 133.44 121.595 134C122.603 134.544 123.387 135.312 123.947 136.304C124.523 137.28 124.811 138.392 124.811 139.64C124.811 140.888 124.523 142.008 123.947 143C123.387 143.976 122.603 144.744 121.595 145.304C120.603 145.864 119.475 146.144 118.211 146.144ZM118.211 144.128C119.027 144.128 119.755 143.944 120.395 143.576C121.051 143.192 121.563 142.664 121.931 141.992C122.299 141.304 122.483 140.52 122.483 139.64C122.483 138.76 122.299 137.984 121.931 137.312C121.563 136.624 121.051 136.096 120.395 135.728C119.755 135.36 119.027 135.176 118.211 135.176C117.395 135.176 116.659 135.36 116.003 135.728C115.363 136.096 114.851 136.624 114.467 137.312C114.099 137.984 113.915 138.76 113.915 139.64C113.915 140.52 114.099 141.304 114.467 141.992C114.851 142.664 115.363 143.192 116.003 143.576C116.659 143.944 117.395 144.128 118.211 144.128ZM138.29 133.28V146H135.986V140.864C134.61 141.504 133.242 141.824 131.882 141.824C130.298 141.824 129.074 141.456 128.21 140.72C127.346 139.984 126.914 138.88 126.914 137.408V133.28H129.218V137.264C129.218 138.144 129.49 138.808 130.034 139.256C130.594 139.704 131.37 139.928 132.362 139.928C133.482 139.928 134.69 139.648 135.986 139.088V133.28H138.29ZM154.571 133.28V144.272C154.571 146.496 154.051 148.136 153.011 149.192C151.971 150.264 150.411 150.8 148.331 150.8C147.195 150.8 146.107 150.632 145.067 150.296C144.043 149.976 143.203 149.512 142.547 148.904L143.675 147.128C144.235 147.64 144.907 148.04 145.691 148.328C146.491 148.616 147.331 148.76 148.211 148.76C149.603 148.76 150.627 148.408 151.283 147.704C151.939 147.016 152.267 145.952 152.267 144.512V143.576C151.803 144.184 151.203 144.656 150.467 144.992C149.731 145.312 148.931 145.472 148.067 145.472C146.371 145.472 145.035 145.008 144.059 144.08C143.083 143.152 142.595 141.776 142.595 139.952V133.28H144.899V139.688C144.899 140.904 145.195 141.832 145.787 142.472C146.379 143.096 147.227 143.408 148.331 143.408C149.547 143.408 150.507 143.04 151.211 142.304C151.915 141.568 152.267 140.528 152.267 139.184V133.28H154.571ZM56.3749 169.28V180.272C56.3749 182.496 55.8229 184.136 54.7189 185.192C53.6149 186.264 51.9669 186.8 49.7749 186.8C48.5749 186.8 47.4309 186.632 46.3429 186.296C45.2549 185.976 44.3749 185.512 43.7029 184.904L44.8069 183.128C45.3989 183.64 46.1269 184.04 46.9909 184.328C47.8709 184.632 48.7749 184.784 49.7029 184.784C51.1909 184.784 52.2869 184.432 52.9909 183.728C53.7109 183.024 54.0709 181.952 54.0709 180.512V179.504C53.5269 180.16 52.8549 180.656 52.0549 180.992C51.2709 181.312 50.4149 181.472 49.4869 181.472C48.2709 181.472 47.1669 181.216 46.1749 180.704C45.1989 180.176 44.4309 179.448 43.8709 178.52C43.3109 177.576 43.0309 176.504 43.0309 175.304C43.0309 174.104 43.3109 173.04 43.8709 172.112C44.4309 171.168 45.1989 170.44 46.1749 169.928C47.1669 169.416 48.2709 169.16 49.4869 169.16C50.4469 169.16 51.3349 169.336 52.1509 169.688C52.9829 170.04 53.6629 170.56 54.1909 171.248V169.28H56.3749ZM49.7509 179.456C50.5829 179.456 51.3269 179.28 51.9829 178.928C52.6549 178.576 53.1749 178.088 53.5429 177.464C53.9269 176.824 54.1189 176.104 54.1189 175.304C54.1189 174.072 53.7109 173.08 52.8949 172.328C52.0789 171.56 51.0309 171.176 49.7509 171.176C48.4549 171.176 47.3989 171.56 46.5829 172.328C45.7669 173.08 45.3589 174.072 45.3589 175.304C45.3589 176.104 45.5429 176.824 45.9109 177.464C46.2949 178.088 46.8149 178.576 47.4709 178.928C48.1429 179.28 48.9029 179.456 49.7509 179.456ZM66.3206 182.144C65.0566 182.144 63.9206 181.864 62.9126 181.304C61.9046 180.744 61.1126 179.976 60.5366 179C59.9766 178.008 59.6966 176.888 59.6966 175.64C59.6966 174.392 59.9766 173.28 60.5366 172.304C61.1126 171.312 61.9046 170.544 62.9126 170C63.9206 169.44 65.0566 169.16 66.3206 169.16C67.5846 169.16 68.7126 169.44 69.7046 170C70.7126 170.544 71.4966 171.312 72.0566 172.304C72.6326 173.28 72.9206 174.392 72.9206 175.64C72.9206 176.888 72.6326 178.008 72.0566 179C71.4966 179.976 70.7126 180.744 69.7046 181.304C68.7126 181.864 67.5846 182.144 66.3206 182.144ZM66.3206 180.128C67.1366 180.128 67.8646 179.944 68.5046 179.576C69.1606 179.192 69.6726 178.664 70.0406 177.992C70.4086 177.304 70.5926 176.52 70.5926 175.64C70.5926 174.76 70.4086 173.984 70.0406 173.312C69.6726 172.624 69.1606 172.096 68.5046 171.728C67.8646 171.36 67.1366 171.176 66.3206 171.176C65.5046 171.176 64.7686 171.36 64.1126 171.728C63.4726 172.096 62.9606 172.624 62.5766 173.312C62.2086 173.984 62.0246 174.76 62.0246 175.64C62.0246 176.52 62.2086 177.304 62.5766 177.992C62.9606 178.664 63.4726 179.192 64.1126 179.576C64.7686 179.944 65.5046 180.128 66.3206 180.128ZM88.0316 169.28V182H85.7276V171.296H78.5516V182H76.2476V169.28H88.0316ZM97.9378 182.144C96.6738 182.144 95.5378 181.864 94.5298 181.304C93.5218 180.744 92.7298 179.976 92.1538 179C91.5938 178.008 91.3138 176.888 91.3138 175.64C91.3138 174.392 91.5938 173.28 92.1538 172.304C92.7298 171.312 93.5218 170.544 94.5298 170C95.5378 169.44 96.6738 169.16 97.9378 169.16C99.2018 169.16 100.33 169.44 101.322 170C102.33 170.544 103.114 171.312 103.674 172.304C104.25 173.28 104.538 174.392 104.538 175.64C104.538 176.888 104.25 178.008 103.674 179C103.114 179.976 102.33 180.744 101.322 181.304C100.33 181.864 99.2018 182.144 97.9378 182.144ZM97.9378 180.128C98.7538 180.128 99.4818 179.944 100.122 179.576C100.778 179.192 101.29 178.664 101.658 177.992C102.026 177.304 102.21 176.52 102.21 175.64C102.21 174.76 102.026 173.984 101.658 173.312C101.29 172.624 100.778 172.096 100.122 171.728C99.4818 171.36 98.7538 171.176 97.9378 171.176C97.1218 171.176 96.3858 171.36 95.7298 171.728C95.0898 172.096 94.5778 172.624 94.1938 173.312C93.8258 173.984 93.6418 174.76 93.6418 175.64C93.6418 176.52 93.8258 177.304 94.1938 177.992C94.5778 178.664 95.0898 179.192 95.7298 179.576C96.3858 179.944 97.1218 180.128 97.9378 180.128ZM122.529 169.28V182H120.441V172.712L115.689 180.56H114.681L109.977 172.688V182H107.865V169.28H110.241L115.233 177.872L120.369 169.28H122.529ZM138.965 169.28V182H136.757V179.984C136.245 180.688 135.597 181.224 134.813 181.592C134.029 181.96 133.165 182.144 132.221 182.144C130.989 182.144 129.885 181.872 128.909 181.328C127.933 180.784 127.165 180.024 126.605 179.048C126.061 178.056 125.789 176.92 125.789 175.64C125.789 174.36 126.061 173.232 126.605 172.256C127.165 171.28 127.933 170.52 128.909 169.976C129.885 169.432 130.989 169.16 132.221 169.16C133.133 169.16 133.973 169.336 134.741 169.688C135.509 170.024 136.149 170.528 136.661 171.2V169.28H138.965ZM132.413 180.128C133.213 180.128 133.941 179.944 134.597 179.576C135.253 179.192 135.765 178.664 136.133 177.992C136.501 177.304 136.685 176.52 136.685 175.64C136.685 174.76 136.501 173.984 136.133 173.312C135.765 172.624 135.253 172.096 134.597 171.728C133.941 171.36 133.213 171.176 132.413 171.176C131.597 171.176 130.861 171.36 130.205 171.728C129.565 172.096 129.053 172.624 128.669 173.312C128.301 173.984 128.117 174.76 128.117 175.64C128.117 176.52 128.301 177.304 128.669 177.992C129.053 178.664 129.565 179.192 130.205 179.576C130.861 179.944 131.597 180.128 132.413 180.128ZM152.733 171.296H145.677V182H143.373V169.28H152.733V171.296ZM166.481 169.28V182H164.273V179.984C163.761 180.688 163.113 181.224 162.329 181.592C161.545 181.96 160.681 182.144 159.737 182.144C158.505 182.144 157.401 181.872 156.425 181.328C155.449 180.784 154.681 180.024 154.121 179.048C153.577 178.056 153.305 176.92 153.305 175.64C153.305 174.36 153.577 173.232 154.121 172.256C154.681 171.28 155.449 170.52 156.425 169.976C157.401 169.432 158.505 169.16 159.737 169.16C160.649 169.16 161.489 169.336 162.257 169.688C163.025 170.024 163.665 170.528 164.177 171.2V169.28H166.481ZM159.929 180.128C160.729 180.128 161.457 179.944 162.113 179.576C162.769 179.192 163.281 178.664 163.649 177.992C164.017 177.304 164.201 176.52 164.201 175.64C164.201 174.76 164.017 173.984 163.649 173.312C163.281 172.624 162.769 172.096 162.113 171.728C161.457 171.36 160.729 171.176 159.929 171.176C159.113 171.176 158.377 171.36 157.721 171.728C157.081 172.096 156.569 172.624 156.185 173.312C155.817 173.984 155.633 174.76 155.633 175.64C155.633 176.52 155.817 177.304 156.185 177.992C156.569 178.664 157.081 179.192 157.721 179.576C158.377 179.944 159.113 180.128 159.929 180.128ZM186.8 169.16C188.4 169.16 189.664 169.624 190.592 170.552C191.536 171.48 192.008 172.856 192.008 174.68V182H189.704V174.944C189.704 173.712 189.416 172.784 188.84 172.16C188.28 171.536 187.472 171.224 186.416 171.224C185.248 171.224 184.32 171.592 183.632 172.328C182.944 173.048 182.6 174.088 182.6 175.448V182H180.296V174.944C180.296 173.712 180.008 172.784 179.432 172.16C178.872 171.536 178.064 171.224 177.008 171.224C175.84 171.224 174.912 171.592 174.224 172.328C173.536 173.048 173.192 174.088 173.192 175.448V182H170.888V169.28H173.096V171.176C173.56 170.52 174.168 170.024 174.92 169.688C175.672 169.336 176.528 169.16 177.488 169.16C178.48 169.16 179.36 169.36 180.128 169.76C180.896 170.16 181.488 170.744 181.904 171.512C182.384 170.776 183.048 170.2 183.896 169.784C184.76 169.368 185.728 169.16 186.8 169.16ZM207.699 169.28V182H205.491V180.128C205.027 180.768 204.419 181.264 203.667 181.616C202.915 181.968 202.091 182.144 201.195 182.144C199.499 182.144 198.163 181.68 197.187 180.752C196.211 179.808 195.723 178.424 195.723 176.6V169.28H198.027V176.336C198.027 177.568 198.323 178.504 198.915 179.144C199.507 179.768 200.355 180.08 201.459 180.08C202.675 180.08 203.635 179.712 204.339 178.976C205.043 178.24 205.395 177.2 205.395 175.856V169.28H207.699Z" fill="black"/>
<defs>
<clipPath id="clip0_16_882">
<rect width="110" height="110" fill="white" transform="translate(71)"/>
</clipPath>
</defs>
</svg>
