<svg width="252" height="211" viewBox="0 0 252 211" fill="none" xmlns="http://www.w3.org/2000/svg">
<rect y="53" width="252" height="158" rx="20" fill="#F3F5F6"/>
<path d="M124.019 96.433C147.259 96.433 166.098 77.8006 166.098 54.8164C166.098 31.8321 147.259 13.1997 124.019 13.1997C100.779 13.1997 81.9395 31.8321 81.9395 54.8164C81.9395 77.8006 100.779 96.433 124.019 96.433Z" fill="#E5E0FF"/>
<path fill-rule="evenodd" clip-rule="evenodd" d="M160.325 81.3454C160.708 81.2103 161.112 81.0307 161.423 80.7707C161.792 80.4618 161.943 80.064 162.044 79.6453C162.173 79.1074 162.225 78.5344 162.382 77.9956C162.44 77.7955 162.552 77.7199 162.6 77.6863C162.722 77.6015 162.844 77.5789 162.96 77.5874C163.097 77.5972 163.285 77.6484 163.408 77.8753C163.426 77.9078 163.449 77.9572 163.464 78.025C163.476 78.0747 163.483 78.2301 163.495 78.2942C163.525 78.452 163.549 78.6098 163.573 78.7685C163.651 79.2966 163.695 79.7452 163.941 80.2303C164.274 80.889 164.609 81.292 165.062 81.4705C165.5 81.6431 166.024 81.6107 166.693 81.4753C166.757 81.4601 166.82 81.447 166.882 81.4363C167.177 81.3853 167.459 81.5769 167.517 81.8676C167.575 82.1582 167.388 82.4413 167.095 82.5052C167.034 82.5185 166.974 82.5311 166.914 82.5427C166.01 82.7641 164.963 83.5544 164.354 84.2465C164.167 84.4598 163.892 85.0564 163.612 85.4369C163.406 85.7177 163.173 85.9027 162.978 85.9681C162.847 86.0121 162.737 86.0054 162.646 85.9832C162.514 85.9509 162.404 85.8801 162.32 85.7674C162.274 85.7057 162.232 85.6231 162.211 85.5176C162.202 85.4668 162.201 85.3378 162.201 85.2794C162.144 85.0852 162.074 84.8955 162.023 84.6996C161.902 84.2321 161.663 83.9361 161.38 83.5451C161.116 83.1791 160.831 82.9492 160.415 82.7656C160.36 82.7526 159.923 82.6466 159.769 82.5858C159.543 82.4967 159.435 82.3474 159.396 82.2669C159.33 82.1305 159.323 82.0113 159.336 81.9119C159.356 81.7652 159.423 81.6397 159.541 81.5383C159.614 81.4753 159.723 81.4141 159.869 81.3842C159.983 81.3609 160.282 81.3474 160.325 81.3454ZM162.891 80.5834C162.911 80.6281 162.933 80.673 162.956 80.7183C163.444 81.683 163.99 82.2216 164.654 82.4829L164.676 82.4914C164.232 82.8175 163.83 83.1819 163.523 83.5313C163.396 83.6752 163.229 83.974 163.048 84.2805C162.884 83.7519 162.615 83.3783 162.277 82.9108C162.018 82.554 161.748 82.2855 161.415 82.0667C161.673 81.9357 161.919 81.7822 162.134 81.603C162.491 81.3047 162.727 80.959 162.891 80.5834Z" fill="#E3E3E3"/>
<ellipse cx="76.2929" cy="46.7068" rx="1.99291" ry="1.971" fill="#E3E3E3"/>
<path d="M93.5255 29.0447L93.3493 29.0955C93.4381 29.4034 93.7615 29.5776 94.0681 29.4889L94.0684 29.4888C94.3735 29.4 94.5537 29.0798 94.4627 28.7718M93.5255 29.0447L93.3495 29.0963C92.8447 27.3747 91.8534 26.0322 90.3307 25.0604L90.3306 25.0603C90.0618 24.8886 89.9819 24.5307 90.1563 24.2615C90.3288 23.9928 90.6879 23.9159 90.9563 24.0874C92.7215 25.2145 93.8778 26.7778 94.4627 28.7718M93.5255 29.0447C93.5857 29.2536 93.8062 29.3738 94.0172 29.3128C94.2265 29.2518 94.3487 29.0325 94.2868 28.8236M93.5255 29.0447L94.2868 28.8236M94.4627 28.7718C94.4627 28.7717 94.4626 28.7716 94.4626 28.7716L94.2868 28.8236M94.4627 28.7718C94.4627 28.7719 94.4627 28.7719 94.4628 28.772L94.2868 28.8236" fill="black" stroke="black" stroke-width="0.366667"/>
<path d="M112.16 29.7045L112.16 29.7045C112.557 29.5034 112.701 29.1185 112.664 28.7073M112.16 29.7045L112.481 28.7235M112.16 29.7045C111.697 29.9378 111.303 29.9224 110.988 29.7664C110.688 29.618 110.469 29.3343 110.335 28.9823L110.335 28.9822M112.16 29.7045L110.335 28.9822M112.664 28.7073L112.481 28.7235M112.664 28.7073C112.664 28.7075 112.664 28.7077 112.664 28.708L112.481 28.7235M112.664 28.7073C112.632 28.3317 112.432 27.9128 112.324 27.7226M112.481 28.7235C112.453 28.3882 112.269 27.9972 112.164 27.8132M112.324 27.7226C112.324 27.7226 112.324 27.7226 112.324 27.7227L112.164 27.8132M112.324 27.7226L112.164 27.8132M112.324 27.7226C112.103 27.3346 111.848 26.9688 111.565 26.6272C112.936 24.0418 115.965 22.9897 118.642 24.2054L118.643 24.2055C118.934 24.3373 119.277 24.2099 119.411 23.9206L119.411 23.9195L119.411 23.9195C119.544 23.6292 119.416 23.2861 119.124 23.1538M112.164 27.8132L96.9151 42.4767C96.923 42.7788 96.8945 42.958 96.8786 42.9938L97.0474 43.0653C97.0473 43.0656 97.0472 43.0659 97.047 43.0662C96.9393 43.3197 96.739 43.3897 96.6144 43.4132L96.6125 43.4135C96.4364 43.4448 96.2896 43.4113 96.1712 43.3502L96.1702 43.3497C96.0087 43.2652 95.8805 43.1167 95.8229 42.9032L95.8225 42.9019C95.7919 42.7851 95.7864 42.6373 95.7896 42.4988L95.7897 42.4969C95.7906 42.4689 95.7927 42.4413 95.7947 42.4171C95.7968 42.3916 95.7986 42.371 95.7998 42.3506C95.801 42.3306 95.8014 42.3156 95.8009 42.304C95.8005 42.2944 95.7997 42.2903 95.7996 42.2899C95.6932 41.9205 95.5677 41.5587 95.4401 41.1906C95.4214 41.1368 95.4028 41.0829 95.3841 41.0288L95.3839 41.0284C94.9013 39.6209 94.2762 38.2995 93.579 36.9747L93.579 36.9746C93.3917 36.6187 93.2051 36.2615 93.0182 35.9038C90.9816 32.0047 88.9139 28.046 85.6051 25.124L85.6051 25.124C85.3664 24.9131 85.3422 24.5475 85.556 24.3081C85.7681 24.0688 86.1341 24.0486 86.3739 24.2587L86.3744 24.2592C89.8321 27.3119 91.9926 31.4429 94.082 35.438C94.257 35.7725 94.4314 36.1061 94.6061 36.438L94.6061 36.438C95.0495 37.2808 95.4667 38.1263 95.8394 38.9949C95.8218 37.0235 95.883 34.583 96.2135 32.3829C96.386 31.234 96.6372 30.146 96.9867 29.2123C97.3354 28.2803 97.7866 27.4897 98.3665 26.9479L98.3666 26.9479C101.958 23.5941 106.684 22.833 109.921 25.1153L109.921 25.1153C110.201 25.313 110.471 25.527 110.726 25.7564C112.462 22.8667 115.996 21.7335 119.124 23.1538M119.124 23.1538C119.124 23.1538 119.124 23.1538 119.124 23.1538L119.048 23.3208M119.124 23.1538C119.124 23.1538 119.124 23.1539 119.124 23.1539L119.048 23.3208M119.048 23.3208C119.248 23.4112 119.335 23.6454 119.245 23.8434L119.048 23.3208ZM95.5573 40.9689C95.5759 41.0227 95.5946 41.0765 95.6132 41.1302C95.7408 41.4983 95.8681 41.8654 95.9761 42.2402C95.9894 42.2871 95.9841 42.3511 95.9786 42.4174C95.9763 42.446 95.9739 42.4749 95.9729 42.5031L95.5573 40.9689ZM95.5573 40.9689C95.0704 39.549 94.4407 38.2183 93.7412 36.8893L95.5573 40.9689ZM110.335 28.9822C110.208 28.6464 110.157 28.2334 110.152 27.8432M110.335 28.9822L110.152 27.8432M110.152 27.8432C110.147 27.4953 110.179 27.1534 110.231 26.8819M110.152 27.8432L110.231 26.8819M110.231 26.8819C109.929 26.5803 109.601 26.3052 109.251 26.0586C106.476 24.1021 102.361 24.8014 99.1593 27.791L110.231 26.8819ZM111.476 28.698C111.483 28.7103 111.49 28.7181 111.494 28.723C111.466 28.6028 111.411 28.4778 111.363 28.382C111.379 28.4503 111.398 28.5147 111.42 28.5738L111.42 28.574C111.442 28.6303 111.458 28.6693 111.476 28.698Z" fill="black" stroke="black" stroke-width="0.366667"/>
<rect x="104.598" y="34.7913" width="72.4374" height="25.8256" rx="8.8" fill="black"/>
<rect x="134.5" y="43.6819" width="24.4266" height="3.38697" rx="1.69348" fill="#CCC6D9"/>
<rect x="110.916" y="48.7625" width="48.1339" height="3.38697" rx="1.69348" fill="white"/>
<ellipse cx="167.77" cy="47.9156" rx="4.21148" ry="4.23371" fill="#E1DCEB"/>
<rect x="74.3" y="56.3833" width="72.4374" height="25.8256" rx="8.8" fill="#5B40FF"/>
<rect x="92.4093" y="65.2744" width="24.4266" height="3.38697" rx="1.69348" fill="black"/>
<rect x="92.4093" y="70.355" width="48.1339" height="3.38697" rx="1.69348" fill="white"/>
<ellipse cx="84.8287" cy="69.5079" rx="4.21147" ry="4.23371" fill="#CCC6D9"/>
<path d="M59.008 146.192C57.312 146.192 55.784 145.824 54.424 145.088C53.064 144.336 51.992 143.304 51.208 141.992C50.44 140.68 50.056 139.216 50.056 137.6C50.056 135.984 50.44 134.52 51.208 133.208C51.992 131.896 53.064 130.872 54.424 130.136C55.784 129.384 57.312 129.008 59.008 129.008C60.688 129.008 62.208 129.384 63.568 130.136C64.928 130.872 65.992 131.896 66.76 133.208C67.528 134.504 67.912 135.968 67.912 137.6C67.912 139.232 67.528 140.704 66.76 142.016C65.992 143.312 64.928 144.336 63.568 145.088C62.208 145.824 60.688 146.192 59.008 146.192ZM59.008 144.056C60.24 144.056 61.344 143.776 62.32 143.216C63.312 142.656 64.088 141.888 64.648 140.912C65.224 139.92 65.512 138.816 65.512 137.6C65.512 136.384 65.224 135.288 64.648 134.312C64.088 133.32 63.312 132.544 62.32 131.984C61.344 131.424 60.24 131.144 59.008 131.144C57.776 131.144 56.656 131.424 55.648 131.984C54.656 132.544 53.872 133.32 53.296 134.312C52.736 135.288 52.456 136.384 52.456 137.6C52.456 138.816 52.736 139.92 53.296 140.912C53.872 141.888 54.656 142.656 55.648 143.216C56.656 143.776 57.776 144.056 59.008 144.056ZM87.3198 133.16C88.9198 133.16 90.1838 133.624 91.1118 134.552C92.0558 135.48 92.5278 136.856 92.5278 138.68V146H90.2238V138.944C90.2238 137.712 89.9358 136.784 89.3598 136.16C88.7998 135.536 87.9918 135.224 86.9358 135.224C85.7678 135.224 84.8398 135.592 84.1518 136.328C83.4638 137.048 83.1198 138.088 83.1198 139.448V146H80.8158V138.944C80.8158 137.712 80.5278 136.784 79.9518 136.16C79.3918 135.536 78.5838 135.224 77.5278 135.224C76.3598 135.224 75.4318 135.592 74.7438 136.328C74.0558 137.048 73.7118 138.088 73.7118 139.448V146H71.4078V133.28H73.6158V135.176C74.0798 134.52 74.6878 134.024 75.4398 133.688C76.1918 133.336 77.0478 133.16 78.0078 133.16C78.9998 133.16 79.8798 133.36 80.6478 133.76C81.4158 134.16 82.0078 134.744 82.4238 135.512C82.9038 134.776 83.5678 134.2 84.4158 133.784C85.2798 133.368 86.2478 133.16 87.3198 133.16ZM102.675 133.16C103.955 133.16 105.083 133.432 106.059 133.976C107.051 134.52 107.811 135.288 108.339 136.28C108.883 137.256 109.155 138.384 109.155 139.664C109.155 140.928 108.891 142.056 108.363 143.048C107.835 144.024 107.099 144.784 106.155 145.328C105.211 145.872 104.131 146.144 102.915 146.144C101.955 146.144 101.091 145.976 100.323 145.64C99.5545 145.288 98.9145 144.784 98.4025 144.128V150.656H96.0745V139.688C96.0745 138.408 96.3465 137.272 96.8905 136.28C97.4505 135.288 98.2265 134.52 99.2185 133.976C100.227 133.432 101.379 133.16 102.675 133.16ZM102.603 144.128C103.419 144.128 104.155 143.944 104.811 143.576C105.467 143.192 105.971 142.664 106.323 141.992C106.691 141.304 106.875 140.528 106.875 139.664C106.875 138.8 106.691 138.032 106.323 137.36C105.971 136.672 105.467 136.136 104.811 135.752C104.171 135.368 103.435 135.176 102.603 135.176C101.339 135.176 100.315 135.592 99.5305 136.424C98.7465 137.24 98.3545 138.312 98.3545 139.64C98.3545 140.52 98.5305 141.304 98.8825 141.992C99.2505 142.664 99.7545 143.192 100.395 143.576C101.035 143.944 101.771 144.128 102.603 144.128ZM124.109 133.28V146H121.901V144.128C121.437 144.768 120.829 145.264 120.077 145.616C119.325 145.968 118.501 146.144 117.605 146.144C115.909 146.144 114.573 145.68 113.597 144.752C112.621 143.808 112.133 142.424 112.133 140.6V133.28H114.437V140.336C114.437 141.568 114.733 142.504 115.325 143.144C115.917 143.768 116.765 144.08 117.869 144.08C119.085 144.08 120.045 143.712 120.749 142.976C121.453 142.24 121.805 141.2 121.805 139.856V133.28H124.109ZM143.259 133.28V146H141.171V136.712L136.419 144.56H135.411L130.707 136.688V146H128.595V133.28H130.971L135.963 141.872L141.099 133.28H143.259ZM159.696 133.28V146H157.488V143.984C156.976 144.688 156.328 145.224 155.544 145.592C154.76 145.96 153.896 146.144 152.952 146.144C151.72 146.144 150.616 145.872 149.64 145.328C148.664 144.784 147.896 144.024 147.336 143.048C146.792 142.056 146.52 140.92 146.52 139.64C146.52 138.36 146.792 137.232 147.336 136.256C147.896 135.28 148.664 134.52 149.64 133.976C150.616 133.432 151.72 133.16 152.952 133.16C153.864 133.16 154.704 133.336 155.472 133.688C156.24 134.024 156.88 134.528 157.392 135.2V133.28H159.696ZM153.144 144.128C153.944 144.128 154.672 143.944 155.328 143.576C155.984 143.192 156.496 142.664 156.864 141.992C157.232 141.304 157.416 140.52 157.416 139.64C157.416 138.76 157.232 137.984 156.864 137.312C156.496 136.624 155.984 136.096 155.328 135.728C154.672 135.36 153.944 135.176 153.144 135.176C152.328 135.176 151.592 135.36 150.936 135.728C150.296 136.096 149.784 136.624 149.4 137.312C149.032 137.984 148.848 138.76 148.848 139.64C148.848 140.52 149.032 141.304 149.4 141.992C149.784 142.664 150.296 143.192 150.936 143.576C151.592 143.944 152.328 144.128 153.144 144.128ZM180.015 133.16C181.615 133.16 182.879 133.624 183.807 134.552C184.751 135.48 185.223 136.856 185.223 138.68V146H182.919V138.944C182.919 137.712 182.631 136.784 182.055 136.16C181.495 135.536 180.687 135.224 179.631 135.224C178.463 135.224 177.535 135.592 176.847 136.328C176.159 137.048 175.815 138.088 175.815 139.448V146H173.511V138.944C173.511 137.712 173.223 136.784 172.647 136.16C172.087 135.536 171.279 135.224 170.223 135.224C169.055 135.224 168.127 135.592 167.439 136.328C166.751 137.048 166.407 138.088 166.407 139.448V146H164.103V133.28H166.311V135.176C166.775 134.52 167.383 134.024 168.135 133.688C168.887 133.336 169.743 133.16 170.703 133.16C171.695 133.16 172.575 133.36 173.343 133.76C174.111 134.16 174.703 134.744 175.119 135.512C175.599 134.776 176.263 134.2 177.111 133.784C177.975 133.368 178.943 133.16 180.015 133.16ZM200.914 133.28V146H198.706V144.128C198.242 144.768 197.634 145.264 196.882 145.616C196.13 145.968 195.306 146.144 194.41 146.144C192.714 146.144 191.378 145.68 190.402 144.752C189.426 143.808 188.938 142.424 188.938 140.6V133.28H191.242V140.336C191.242 141.568 191.538 142.504 192.13 143.144C192.722 143.768 193.57 144.08 194.674 144.08C195.89 144.08 196.85 143.712 197.554 142.976C198.258 142.24 198.61 141.2 198.61 139.856V133.28H200.914ZM77.2928 169.28V180.272C77.2928 182.496 76.7408 184.136 75.6368 185.192C74.5328 186.264 72.8848 186.8 70.6928 186.8C69.4928 186.8 68.3488 186.632 67.2608 186.296C66.1728 185.976 65.2928 185.512 64.6208 184.904L65.7248 183.128C66.3168 183.64 67.0448 184.04 67.9088 184.328C68.7888 184.632 69.6928 184.784 70.6208 184.784C72.1088 184.784 73.2048 184.432 73.9088 183.728C74.6288 183.024 74.9888 181.952 74.9888 180.512V179.504C74.4448 180.16 73.7728 180.656 72.9728 180.992C72.1888 181.312 71.3328 181.472 70.4048 181.472C69.1888 181.472 68.0848 181.216 67.0928 180.704C66.1168 180.176 65.3488 179.448 64.7888 178.52C64.2288 177.576 63.9488 176.504 63.9488 175.304C63.9488 174.104 64.2288 173.04 64.7888 172.112C65.3488 171.168 66.1168 170.44 67.0928 169.928C68.0848 169.416 69.1888 169.16 70.4048 169.16C71.3648 169.16 72.2528 169.336 73.0688 169.688C73.9008 170.04 74.5808 170.56 75.1088 171.248V169.28H77.2928ZM70.6688 179.456C71.5008 179.456 72.2448 179.28 72.9008 178.928C73.5728 178.576 74.0928 178.088 74.4608 177.464C74.8448 176.824 75.0368 176.104 75.0368 175.304C75.0368 174.072 74.6288 173.08 73.8128 172.328C72.9968 171.56 71.9488 171.176 70.6688 171.176C69.3728 171.176 68.3168 171.56 67.5008 172.328C66.6848 173.08 66.2768 174.072 66.2768 175.304C66.2768 176.104 66.4608 176.824 66.8288 177.464C67.2128 178.088 67.7328 178.576 68.3888 178.928C69.0608 179.28 69.8208 179.456 70.6688 179.456ZM87.2386 182.144C85.9746 182.144 84.8386 181.864 83.8306 181.304C82.8226 180.744 82.0306 179.976 81.4546 179C80.8946 178.008 80.6146 176.888 80.6146 175.64C80.6146 174.392 80.8946 173.28 81.4546 172.304C82.0306 171.312 82.8226 170.544 83.8306 170C84.8386 169.44 85.9746 169.16 87.2386 169.16C88.5026 169.16 89.6306 169.44 90.6226 170C91.6306 170.544 92.4146 171.312 92.9746 172.304C93.5506 173.28 93.8386 174.392 93.8386 175.64C93.8386 176.888 93.5506 178.008 92.9746 179C92.4146 179.976 91.6306 180.744 90.6226 181.304C89.6306 181.864 88.5026 182.144 87.2386 182.144ZM87.2386 180.128C88.0546 180.128 88.7826 179.944 89.4226 179.576C90.0786 179.192 90.5906 178.664 90.9586 177.992C91.3266 177.304 91.5106 176.52 91.5106 175.64C91.5106 174.76 91.3266 173.984 90.9586 173.312C90.5906 172.624 90.0786 172.096 89.4226 171.728C88.7826 171.36 88.0546 171.176 87.2386 171.176C86.4226 171.176 85.6866 171.36 85.0306 171.728C84.3906 172.096 83.8786 172.624 83.4946 173.312C83.1266 173.984 82.9426 174.76 82.9426 175.64C82.9426 176.52 83.1266 177.304 83.4946 177.992C83.8786 178.664 84.3906 179.192 85.0306 179.576C85.6866 179.944 86.4226 180.128 87.2386 180.128ZM108.95 169.28V182H106.646V171.296H99.4696V182H97.1656V169.28H108.95ZM118.856 182.144C117.592 182.144 116.456 181.864 115.448 181.304C114.44 180.744 113.648 179.976 113.072 179C112.512 178.008 112.232 176.888 112.232 175.64C112.232 174.392 112.512 173.28 113.072 172.304C113.648 171.312 114.44 170.544 115.448 170C116.456 169.44 117.592 169.16 118.856 169.16C120.12 169.16 121.248 169.44 122.24 170C123.248 170.544 124.032 171.312 124.592 172.304C125.168 173.28 125.456 174.392 125.456 175.64C125.456 176.888 125.168 178.008 124.592 179C124.032 179.976 123.248 180.744 122.24 181.304C121.248 181.864 120.12 182.144 118.856 182.144ZM118.856 180.128C119.672 180.128 120.4 179.944 121.04 179.576C121.696 179.192 122.208 178.664 122.576 177.992C122.944 177.304 123.128 176.52 123.128 175.64C123.128 174.76 122.944 173.984 122.576 173.312C122.208 172.624 121.696 172.096 121.04 171.728C120.4 171.36 119.672 171.176 118.856 171.176C118.04 171.176 117.304 171.36 116.648 171.728C116.008 172.096 115.496 172.624 115.112 173.312C114.744 173.984 114.56 174.76 114.56 175.64C114.56 176.52 114.744 177.304 115.112 177.992C115.496 178.664 116.008 179.192 116.648 179.576C117.304 179.944 118.04 180.128 118.856 180.128ZM143.447 169.28V182H141.359V172.712L136.607 180.56H135.599L130.895 172.688V182H128.783V169.28H131.159L136.151 177.872L141.287 169.28H143.447ZM153.379 182.144C152.115 182.144 150.979 181.864 149.971 181.304C148.963 180.744 148.171 179.976 147.595 179C147.035 178.008 146.755 176.888 146.755 175.64C146.755 174.392 147.035 173.28 147.595 172.304C148.171 171.312 148.963 170.544 149.971 170C150.979 169.44 152.115 169.16 153.379 169.16C154.643 169.16 155.771 169.44 156.763 170C157.771 170.544 158.555 171.312 159.115 172.304C159.691 173.28 159.979 174.392 159.979 175.64C159.979 176.888 159.691 178.008 159.115 179C158.555 179.976 157.771 180.744 156.763 181.304C155.771 181.864 154.643 182.144 153.379 182.144ZM153.379 180.128C154.195 180.128 154.923 179.944 155.563 179.576C156.219 179.192 156.731 178.664 157.099 177.992C157.467 177.304 157.651 176.52 157.651 175.64C157.651 174.76 157.467 173.984 157.099 173.312C156.731 172.624 156.219 172.096 155.563 171.728C154.923 171.36 154.195 171.176 153.379 171.176C152.563 171.176 151.827 171.36 151.171 171.728C150.531 172.096 150.019 172.624 149.635 173.312C149.267 173.984 149.083 174.76 149.083 175.64C149.083 176.52 149.267 177.304 149.635 177.992C150.019 178.664 150.531 179.192 151.171 179.576C151.827 179.944 152.563 180.128 153.379 180.128ZM172.666 171.296H165.61V182H163.306V169.28H172.666V171.296ZM186.833 169.28V180.272C186.833 182.496 186.313 184.136 185.273 185.192C184.233 186.264 182.673 186.8 180.593 186.8C179.457 186.8 178.369 186.632 177.329 186.296C176.305 185.976 175.465 185.512 174.809 184.904L175.937 183.128C176.497 183.64 177.169 184.04 177.953 184.328C178.753 184.616 179.593 184.76 180.473 184.76C181.865 184.76 182.889 184.408 183.545 183.704C184.201 183.016 184.529 181.952 184.529 180.512V179.576C184.065 180.184 183.465 180.656 182.729 180.992C181.993 181.312 181.193 181.472 180.329 181.472C178.633 181.472 177.297 181.008 176.321 180.08C175.345 179.152 174.857 177.776 174.857 175.952V169.28H177.161V175.688C177.161 176.904 177.457 177.832 178.049 178.472C178.641 179.096 179.489 179.408 180.593 179.408C181.809 179.408 182.769 179.04 183.473 178.304C184.177 177.568 184.529 176.528 184.529 175.184V169.28H186.833Z" fill="black"/>
</svg>
